<svg width="48" height="48" viewBox="0 0 48 48" fill="none" xmlns="http://www.w3.org/2000/svg">
<mask id="path-1-inside-1" fill="white">
<path fill-rule="evenodd" clip-rule="evenodd" d="M24.5122 25.2766C25.1911 24.5174 25.1911 23.3692 24.5122 22.6101L15.8659 12.9421C15.187 12.1829 15.187 11.0348 15.8659 10.2756L17.2958 8.67676C18.0908 7.78776 19.4823 7.78776 20.2773 8.67676L32.7382 22.6101C33.4172 23.3692 33.4171 24.5174 32.7382 25.2766L20.2773 39.2099C19.4823 40.0989 18.0908 40.0989 17.2958 39.2099L15.8659 37.611C15.187 36.8519 15.187 35.7037 15.8659 34.9445L24.5122 25.2766Z"/>
</mask>
<path fill-rule="evenodd" clip-rule="evenodd" d="M24.5122 25.2766C25.1911 24.5174 25.1911 23.3692 24.5122 22.6101L15.8659 12.9421C15.187 12.1829 15.187 11.0348 15.8659 10.2756L17.2958 8.67676C18.0908 7.78776 19.4823 7.78776 20.2773 8.67676L32.7382 22.6101C33.4172 23.3692 33.4171 24.5174 32.7382 25.2766L20.2773 39.2099C19.4823 40.0989 18.0908 40.0989 17.2958 39.2099L15.8659 37.611C15.187 36.8519 15.187 35.7037 15.8659 34.9445L24.5122 25.2766Z" fill="black"/>
<path d="M15.8659 37.611L15.1205 38.2777L15.8659 37.611ZM15.8659 34.9445L16.6113 35.6112L15.8659 34.9445ZM17.2958 39.2099L18.0412 38.5432L17.2958 39.2099ZM20.2773 39.2099L19.5319 38.5432L20.2773 39.2099ZM32.7382 22.6101L33.4836 21.9434L32.7382 22.6101ZM32.7382 25.2766L33.4836 25.9432L32.7382 25.2766ZM17.2958 8.67676L18.0412 9.34339L17.2958 8.67676ZM20.2773 8.67676L19.5319 9.34339L20.2773 8.67676ZM24.5122 22.6101L23.7668 23.2767L24.5122 22.6101ZM24.5122 25.2766L23.7668 24.6099L24.5122 25.2766ZM15.8659 12.9421L16.6113 12.2755L15.8659 12.9421ZM15.8659 10.2756L15.1205 9.60896L15.8659 10.2756ZM15.1205 13.6087L23.7668 23.2767L25.2576 21.9434L16.6113 12.2755L15.1205 13.6087ZM16.5504 8.01014L15.1205 9.60896L16.6113 10.9422L18.0412 9.34339L16.5504 8.01014ZM15.1205 38.2777L16.5504 39.8765L18.0412 38.5432L16.6113 36.9444L15.1205 38.2777ZM23.7668 24.6099L15.1205 34.2779L16.6113 35.6112L25.2576 25.9432L23.7668 24.6099ZM33.4836 21.9434L21.0227 8.01014L19.5319 9.34339L31.9928 23.2767L33.4836 21.9434ZM21.0227 39.8765L33.4836 25.9432L31.9928 24.6099L19.5319 38.5432L21.0227 39.8765ZM16.6113 36.9444C16.2718 36.5648 16.2718 35.9908 16.6113 35.6112L15.1205 34.2779C14.1021 35.4167 14.1021 37.1389 15.1205 38.2777L16.6113 36.9444ZM16.5504 39.8765C17.743 41.21 19.8302 41.21 21.0227 39.8765L19.5319 38.5432C19.1344 38.9877 18.4387 38.9877 18.0412 38.5432L16.5504 39.8765ZM31.9928 23.2767C32.3323 23.6563 32.3323 24.2303 31.9928 24.6099L33.4836 25.9432C34.502 24.8044 34.502 23.0822 33.4836 21.9434L31.9928 23.2767ZM18.0412 9.34339C18.4387 8.89888 19.1344 8.89888 19.5319 9.34339L21.0227 8.01014C19.8302 6.67663 17.743 6.67663 16.5504 8.01014L18.0412 9.34339ZM23.7668 23.2767C24.1063 23.6563 24.1063 24.2303 23.7668 24.6099L25.2576 25.9432C26.276 24.8044 26.276 23.0822 25.2576 21.9434L23.7668 23.2767ZM16.6113 12.2755C16.2718 11.8959 16.2718 11.3218 16.6113 10.9422L15.1205 9.60896C14.1021 10.7477 14.1021 12.4699 15.1205 13.6087L16.6113 12.2755Z" fill="black" mask="url(#path-1-inside-1)"/>
</svg>
