<svg width="160" height="40" viewBox="0 0 160 40" fill="none" xmlns="http://www.w3.org/2000/svg">
<path fill-rule="evenodd" clip-rule="evenodd" d="M17.2571 1.31409C17.5383 0.97331 17.49 0.469085 17.1492 0.187871C16.8084 -0.0933441 16.3042 -0.0450579 16.023 0.295721L0.187204 19.4857C0.165278 19.5118 0.144924 19.5395 0.126319 19.5685C0.088725 19.6272 0.0593624 19.6899 0.0384465 19.7549C0.0126762 19.835 -1.33327e-05 19.9177 1.05359e-08 20C-1.33478e-05 20.0823 0.0126758 20.165 0.0384461 20.2451C0.059362 20.3101 0.0887252 20.3728 0.12632 20.4315C0.144924 20.4605 0.165278 20.4882 0.187204 20.5143L16.023 39.7043C16.3042 40.0451 16.8084 40.0933 17.1492 39.8121C17.49 39.5309 17.5383 39.0267 17.2571 38.6859L2.4974 20.8L159.2 20.8C159.642 20.8 160 20.4418 160 20C160 19.5582 159.642 19.2 159.2 19.2H2.4974L17.2571 1.31409Z" fill="black"/>
</svg>
