<svg width="169" height="168" viewBox="0 0 169 168" fill="none" xmlns="http://www.w3.org/2000/svg">
<circle cx="84.6543" cy="84" r="84" transform="rotate(90 84.6543 84)" fill="#F0452B"/>
<mask id="mask0" mask-type="alpha" maskUnits="userSpaceOnUse" x="57" y="69" width="55" height="31">
<path fill-rule="evenodd" clip-rule="evenodd" d="M82.3273 84.8538C83.5927 85.9853 85.5063 85.9853 86.7715 84.8538L102.885 70.4433C104.15 69.3118 106.064 69.3118 107.329 70.4433L109.994 72.8265C111.475 74.1515 111.475 76.4707 109.994 77.7957L86.7715 98.5638C85.5063 99.6955 83.5927 99.6953 82.3273 98.5638L59.1052 77.7957C57.6235 76.4707 57.6235 74.1515 59.1052 72.8265L61.77 70.4433C63.0352 69.3118 64.9488 69.3118 66.2142 70.4433L82.3273 84.8538Z" fill="white"/>
</mask>
<g mask="url(#mask0)">
<path fill-rule="evenodd" clip-rule="evenodd" d="M82.3273 84.8538C83.5927 85.9853 85.5063 85.9853 86.7715 84.8538L102.885 70.4433C104.15 69.3118 106.064 69.3118 107.329 70.4433L109.994 72.8265C111.475 74.1515 111.475 76.4707 109.994 77.7957L86.7715 98.5638C85.5063 99.6955 83.5927 99.6953 82.3273 98.5638L59.1052 77.7957C57.6235 76.4707 57.6235 74.1515 59.1052 72.8265L61.77 70.4433C63.0352 69.3118 64.9488 69.3118 66.2142 70.4433L82.3273 84.8538Z" fill="white"/>
<path d="M61.7703 70.4433L60.6592 69.201L61.7703 70.4433ZM66.2145 70.4433L65.1033 71.6857L66.2145 70.4433ZM59.1055 72.8265L60.2167 74.0688L59.1055 72.8265ZM59.1055 77.7957L60.2167 76.5533L59.1055 77.7957ZM86.7718 98.5638L87.883 99.8062L86.7718 98.5638ZM82.3277 98.5638L81.2167 99.8062L82.3277 98.5638ZM109.994 72.8265L108.883 74.0688L109.994 72.8265ZM109.994 77.7957L108.883 76.5533L109.994 77.7957ZM86.7718 84.8538L85.6608 83.6115L86.7718 84.8538ZM82.3277 84.8538L83.4388 83.6115L82.3277 84.8538ZM102.885 70.4433L103.996 71.6857L102.885 70.4433ZM107.329 70.4433L108.44 69.201L107.329 70.4433ZM101.774 69.201L85.6608 83.6115L87.883 86.0962L103.996 71.6857L101.774 69.201ZM111.105 71.5842L108.44 69.201L106.218 71.6857L108.883 74.0688L111.105 71.5842ZM60.6592 69.201L57.9945 71.5842L60.2167 74.0688L62.8813 71.6857L60.6592 69.201ZM83.4388 83.6115L67.3255 69.201L65.1033 71.6857L81.2167 86.0962L83.4388 83.6115ZM87.883 99.8062L111.105 79.038L108.883 76.5533L85.6608 97.3215L87.883 99.8062ZM57.9945 79.038L81.2167 99.8062L83.4388 97.3215L60.2167 76.5533L57.9945 79.038ZM62.8813 71.6857C63.514 71.1198 64.4707 71.1198 65.1033 71.6857L67.3255 69.201C65.4275 67.5037 62.5572 67.5037 60.6592 69.201L62.8813 71.6857ZM57.9945 71.5842C55.772 73.5718 55.772 77.0505 57.9945 79.038L60.2167 76.5533C59.4758 75.8908 59.4758 74.7313 60.2167 74.0688L57.9945 71.5842ZM85.6608 97.3215C85.0282 97.8873 84.0715 97.8873 83.4388 97.3215L81.2167 99.8062C83.1147 101.503 85.985 101.503 87.883 99.8062L85.6608 97.3215ZM108.883 74.0688C109.624 74.7313 109.624 75.8908 108.883 76.5533L111.105 79.038C113.328 77.0505 113.328 73.5718 111.105 71.5842L108.883 74.0688ZM85.6608 83.6115C85.0282 84.1773 84.0715 84.1773 83.4388 83.6115L81.2167 86.0962C83.1147 87.7935 85.985 87.7935 87.883 86.0962L85.6608 83.6115ZM103.996 71.6857C104.629 71.1198 105.586 71.1198 106.218 71.6857L108.44 69.201C106.542 67.5037 103.672 67.5037 101.774 69.201L103.996 71.6857Z" fill="white"/>
</g>
</svg>
