<svg width="32" height="24" viewBox="0 0 32 24" fill="none" xmlns="http://www.w3.org/2000/svg">
<path d="M9.78956 15.3758C11.4212 15.8193 11.7475 15.9671 11.7475 16.7064C11.7475 17.6427 10.7219 18.2341 9.46325 18.2341C7.64518 18.2341 6.94593 16.8542 6.94593 15.8686H0C0 21.191 4.84817 24 9.46325 24C14.0783 24 19.2994 21.8316 19.2994 16.7064C19.2994 15.2772 18.8333 11.3347 13.2392 9.7577L9.37001 8.62423C8.01812 8.27926 7.73842 7.73717 7.73842 7.14579C7.73842 6.20944 8.62414 5.86448 9.55648 5.86448C11.0016 5.86448 11.7475 6.55441 11.7475 7.93429H18.6934C18.6934 1.97125 13.7986 0 9.18354 0C4.33538 0 0.326319 3.44969 0.326319 6.8501C0.326319 8.52567 0.233085 12.616 7.03916 14.5873L9.78956 15.3758Z" fill="#171717"/>
<path d="M23.1428 19.4168C23.1428 22.0287 25.1473 24 27.5248 24C29.9489 24 32 22.0287 32 19.4168C32 16.8049 29.9489 14.9322 27.5248 14.9322C25.1473 14.9322 23.1428 16.8542 23.1428 19.4168Z" fill="#171717"/>
</svg>
